<!DOCTYPE svg PUBLIC "-//W3C//DTD SVG 1.1//EN" "http://www.w3.org/Graphics/SVG/1.1/DTD/svg11.dtd">
<!-- Uploaded to: SVG Repo, www.svgrepo.com, Transformed by: SVG Repo Mixer Tools -->
<svg width="800px" height="800px" viewBox="-2.4 -2.4 28.80 28.80" fill="none" xmlns="http://www.w3.org/2000/svg" stroke="#fefefe">
<g id="SVGRepo_bgCarrier" stroke-width="0">
<rect x="-2.4" y="-2.4" width="28.80" height="28.80" rx="0" fill="#59A5D8" strokewidth="0"/>
</g>
<g id="SVGRepo_tracerCarrier" stroke-linecap="round" stroke-linejoin="round"/>
<g id="SVGRepo_iconCarrier"> <path d="M12 21L10 20M12 21L14 20M12 21V18.5M6 18L4 17V14.5M4 9.5V7M4 7L6 6M4 7L6 8M10 4L12 3L14 4M18 6L20 7M20 7L18 8M20 7V9.5M12 11L10 10M12 11L14 10M12 11V13.5M18 18L20 17V14.5" stroke="#fefefe" stroke-width="2" stroke-linecap="round" stroke-linejoin="round"/> </g>
</svg>